<?xml version="1.0" encoding="UTF-8"?>
<svg id="_레이어_2" data-name="레이어 2" xmlns="http://www.w3.org/2000/svg" viewBox="0 0 75.47 17.61">
  <defs>
    <style>
      .cls-1 {
        fill: #231815;
        stroke-width: 0px;
      }
    </style>
  </defs>
  <g id="_레이어_1-2" data-name="레이어 1">
    <g>
      <path class="cls-1" d="M8.39,16.61c-.34.3-.83.53-1.45.7-.69.2-1.51.3-2.46.3-1.45,0-2.56-.38-3.33-1.15-.77-.75-1.15-1.79-1.15-3.12,0-1.47.52-2.61,1.55-3.42,1.02-.77,2.38-1.15,4.1-1.15.36,0,.84.02,1.45.05.7.03,1.25.08,1.64.14,0-.69-.23-1.29-.7-1.8-.53-.58-1.2-.87-2.02-.87-.77,0-1.48.1-2.16.3-.72.22-1.35.55-1.9,1.01-.27.2-.54.27-.82.19-.23-.06-.42-.21-.56-.45-.16-.23-.22-.49-.19-.77.05-.3.2-.54.45-.73.69-.55,1.48-.95,2.39-1.22.86-.23,1.79-.35,2.79-.35,1.22,0,2.27.29,3.16.87,1.14.73,1.71,1.84,1.71,3.3v6.28c0,.34.17.54.52.59.22.05.64.02,1.27-.07h.09c.22-.03.4.06.54.28.11.2.16.45.16.75,0,.28-.05.52-.16.7-.14.22-.32.3-.54.26-.41-.03-.9-.05-1.48-.05-.33,0-.82,0-1.48.02l-.35.02c-.22,0-.38-.05-.49-.16-.06-.08-.12-.21-.19-.4l-.14-.3-.26.26v-.02ZM8.74,10.98c-.64-.08-1.14-.12-1.5-.14-.55-.05-.92-.07-1.12-.07-1.38,0-2.4.28-3.07.84-.53.45-.8,1.03-.8,1.73s.2,1.22.59,1.64c.41.44.95.66,1.64.66.89,0,1.74-.21,2.55-.63.7-.38,1.27-.84,1.71-1.41v-2.62Z"/>
      <path class="cls-1" d="M17.23,1.96c-.17-.05-.51-.03-1.01.05-.23.03-.42-.06-.56-.28-.11-.19-.16-.43-.16-.73s.05-.55.16-.75c.14-.2.33-.28.56-.23.69.09,1.35.14,1.99.14s1.17-.05,1.59-.14v5.55c.44-.42.96-.74,1.57-.96.59-.22,1.23-.33,1.92-.33,1.8,0,3.22.68,4.27,2.04.94,1.23,1.41,2.79,1.41,4.66s-.47,3.38-1.41,4.59c-1.05,1.36-2.47,2.04-4.27,2.04-.62,0-1.21-.09-1.76-.28-.66-.2-1.24-.53-1.76-.98-.14.3-.38.54-.7.73-.41.22-.88.28-1.43.19V2.57c0-.34-.14-.55-.42-.61ZM20.62,7.72c-.58.86-.87,1.95-.87,3.26s.29,2.38.87,3.23c.62.95,1.5,1.43,2.62,1.43s1.96-.48,2.6-1.43c.59-.86.89-1.94.89-3.23s-.3-2.4-.89-3.26c-.64-.95-1.51-1.43-2.6-1.43s-2,.48-2.62,1.43Z"/>
      <path class="cls-1" d="M43.36,6.36c1.06,1.23,1.59,2.77,1.59,4.62s-.53,3.35-1.59,4.57c-1.19,1.38-2.82,2.06-4.9,2.06s-3.73-.69-4.92-2.06c-1.05-1.22-1.57-2.74-1.57-4.57s.52-3.38,1.57-4.62c1.19-1.39,2.83-2.09,4.92-2.09s3.71.7,4.9,2.09ZM35.23,7.72c-.67.86-1.01,1.95-1.01,3.26s.34,2.35,1.01,3.21c.77.97,1.84,1.45,3.23,1.45s2.43-.48,3.21-1.45c.7-.86,1.05-1.93,1.05-3.21s-.35-2.4-1.05-3.26c-.78-.95-1.85-1.43-3.21-1.43s-2.47.48-3.23,1.43Z"/>
      <path class="cls-1" d="M49.2,6.67c-.23-.08-.62-.08-1.15,0-.2.02-.36-.08-.47-.28-.11-.19-.16-.42-.16-.7,0-.3.05-.54.16-.73.11-.2.27-.29.47-.26.48.03,1.12.04,1.92.02.7,0,1.29,0,1.76-.02v9.16c0,.64.23,1.11.7,1.41.38.25.85.38,1.43.38.72,0,1.36-.14,1.92-.42.59-.28,1.06-.7,1.41-1.24v-6.84c0-.25-.12-.41-.35-.49-.22-.06-.58-.05-1.08.02-.22.02-.39-.08-.52-.28-.12-.19-.19-.42-.19-.7s.06-.52.19-.7c.12-.22.3-.31.52-.28.52.03,1.1.05,1.76.05s1.28-.02,1.83-.05v9.87c0,.41.13.65.4.73.17.06.5.05.98-.02h.09c.22-.06.4,0,.54.21.12.2.19.45.19.75,0,.31-.06.56-.19.75-.14.23-.32.33-.54.28-.47-.05-1.02-.07-1.64-.07s-1.19.02-1.73.07c-.06-.28-.15-.45-.26-.52-.09-.08-.23-.07-.42.02-.39.28-.8.48-1.22.61-.47.16-1.02.23-1.66.23-1.38,0-2.45-.35-3.21-1.05-.73-.69-1.1-1.6-1.1-2.74v-6.56c0-.3-.12-.49-.38-.59Z"/>
      <path class="cls-1" d="M65.3,6.83c-.22-.14-.55-.19-1.01-.14-.27.03-.47-.05-.61-.26-.14-.19-.21-.43-.21-.73,0-.28.07-.52.21-.73.14-.22.34-.31.61-.28.62.02,1.02-.18,1.17-.59.17-.42.22-1.38.14-2.86-.06-.28.02-.5.26-.66.22-.14.5-.21.84-.21s.6.07.82.21c.25.16.36.38.33.66l-.07,1.36c-.03.94-.03,1.51,0,1.71.06.27.25.39.56.38.84.03,1.62.05,2.34.07.91,0,1.69-.02,2.34-.07.27-.03.48.05.66.26.16.19.23.43.23.73,0,.28-.08.52-.23.7-.17.22-.39.32-.66.3-.44-.02-.96-.02-1.57-.02h-1.66l-1.45.02c-.25,0-.41.05-.49.16-.06.12-.09.37-.09.73v5.91c0,.75.17,1.29.52,1.62.38.36,1.01.54,1.9.54s1.56-.18,2.06-.54c.45-.33.83-.86,1.12-1.59.08-.2.27-.33.56-.38.27-.03.54.02.82.14.3.12.51.3.63.54.14.25.13.53-.02.84-.62,1.27-1.43,2.11-2.41,2.53-.66.28-1.63.42-2.93.42s-2.44-.34-3.23-1.01c-.78-.67-1.17-1.59-1.17-2.74v-6.28c0-.36-.1-.61-.3-.75Z"/>
    </g>
  </g>
</svg>