<?xml version="1.0" encoding="UTF-8"?>
<svg id="_레이어_2" data-name="레이어 2" xmlns="http://www.w3.org/2000/svg" viewBox="0 0 116.95 17.23">
  <defs>
    <style>
      .cls-1 {
        fill: #231815;
        stroke-width: 0px;
      }
    </style>
  </defs>
  <g id="_레이어_1-2" data-name="레이어 1">
    <g>
      <path class="cls-1" d="M3.35,7.08c-.73.81-1.1,1.95-1.1,3.42s.37,2.59,1.1,3.45c.75.88,1.79,1.31,3.12,1.31.86,0,1.62-.16,2.3-.49.67-.31,1.16-.74,1.48-1.29.12-.27.34-.41.63-.45.28-.05.55,0,.82.16s.44.36.52.61c.11.28.07.57-.12.87-.7,1-1.55,1.7-2.53,2.09-.78.31-1.8.47-3.07.47-1.92,0-3.46-.55-4.62-1.64-1.25-1.2-1.88-2.91-1.88-5.11s.61-3.73,1.83-4.92c1.16-1.11,2.66-1.66,4.52-1.66.52,0,1.01.03,1.48.09.5.08.93.2,1.29.38l.26.14c.16.08.25.11.28.09.05,0,.07-.08.07-.23-.03-.19.09-.32.38-.4.25-.08.54-.09.87-.05.36.05.62.16.77.33.19.2.2.45.05.75-.19.47-.27,1.06-.23,1.78.03.62.13,1.23.3,1.83.08.23.02.45-.19.63-.19.17-.44.27-.75.3-.33.05-.6,0-.82-.12-.25-.16-.38-.39-.38-.7-.12-1-.42-1.71-.89-2.13-.52-.45-1.34-.68-2.48-.68-1.27,0-2.27.39-3,1.17Z"/>
      <path class="cls-1" d="M26.39,5.98c1.06,1.23,1.59,2.77,1.59,4.62s-.53,3.35-1.59,4.57c-1.19,1.38-2.82,2.06-4.9,2.06s-3.73-.69-4.92-2.06c-1.05-1.22-1.57-2.74-1.57-4.57s.52-3.38,1.57-4.62c1.19-1.39,2.83-2.09,4.92-2.09s3.71.7,4.9,2.09ZM18.26,7.34c-.67.86-1.01,1.95-1.01,3.26s.34,2.35,1.01,3.21c.77.97,1.84,1.45,3.23,1.45s2.43-.48,3.21-1.45c.7-.86,1.05-1.93,1.05-3.21s-.35-2.4-1.05-3.26c-.78-.95-1.85-1.43-3.21-1.43s-2.47.48-3.23,1.43Z"/>
      <path class="cls-1" d="M32.13,6.47c-.22-.08-.59-.1-1.1-.07-.2.02-.36-.09-.47-.3-.11-.2-.16-.45-.16-.75,0-.31.05-.56.16-.75.11-.2.27-.27.47-.21.66.05,1.29.07,1.9.07s1.22-.02,1.83-.07c-.05.41-.02.62.09.66.08.02.2-.04.38-.16.39-.28.78-.49,1.17-.63.62-.23,1.35-.35,2.18-.35,1.11,0,2,.27,2.67.8.75.58,1.12,1.43,1.12,2.55v7.31c0,.2.09.33.28.38.17.03.51,0,1.01-.09.28-.08.51,0,.68.21.16.2.23.46.23.77s-.08.56-.23.75c-.17.22-.4.3-.68.26-.77-.05-1.4-.07-1.9-.07s-1.27.02-2.34.07c-.33.06-.59-.02-.8-.23-.19-.2-.28-.46-.28-.77s.09-.57.26-.77c.2-.22.48-.29.82-.21h.05c.27.05.44.06.52.05.16-.03.23-.14.23-.33v-6.75c0-.69-.17-1.18-.52-1.48-.31-.28-.81-.42-1.5-.42-.77,0-1.46.15-2.09.45-.53.25-.99.61-1.38,1.08v7.12c0,.2.09.33.28.38.19.03.42,0,.7-.09.22-.06.39.02.52.23.12.2.19.45.19.75,0,.31-.06.56-.19.75-.12.22-.3.3-.52.26-.67-.05-1.34-.07-2.02-.07s-1.56.02-2.67.07c-.2.03-.36-.06-.47-.28-.11-.2-.16-.45-.16-.75s.05-.54.16-.73c.11-.2.27-.28.47-.23.56.05.93.06,1.1.05.3-.03.45-.14.45-.33v-7.43c0-.34-.15-.56-.45-.66Z"/>
      <path class="cls-1" d="M48.33,6.45c-.22-.14-.55-.19-1.01-.14-.27.03-.47-.05-.61-.26-.14-.19-.21-.43-.21-.73,0-.28.07-.52.21-.73.14-.22.34-.31.61-.28.62.02,1.02-.18,1.17-.59.17-.42.22-1.38.14-2.86-.06-.28.02-.5.26-.66.22-.14.5-.21.84-.21s.6.07.82.21c.25.16.36.38.33.66l-.07,1.36c-.03.94-.03,1.51,0,1.71.06.27.25.39.56.38.84.03,1.62.05,2.34.07.91,0,1.69-.02,2.34-.07.27-.03.48.05.66.26.16.19.23.43.23.73,0,.28-.08.52-.23.7-.17.22-.39.32-.66.3-.44-.02-.96-.02-1.57-.02h-1.66l-1.45.02c-.25,0-.41.05-.49.16-.06.12-.09.37-.09.73v5.91c0,.75.17,1.29.52,1.62.38.36,1.01.54,1.9.54s1.56-.18,2.06-.54c.45-.33.83-.86,1.12-1.59.08-.2.27-.33.56-.38.27-.03.54.02.82.14.3.12.51.3.63.54.14.25.13.53-.02.84-.62,1.27-1.43,2.11-2.41,2.53-.66.28-1.63.42-2.93.42s-2.44-.34-3.23-1.01c-.78-.67-1.17-1.59-1.17-2.74v-6.28c0-.36-.1-.61-.3-.75Z"/>
      <path class="cls-1" d="M69.35,16.22c-.34.3-.83.53-1.45.7-.69.2-1.51.3-2.46.3-1.45,0-2.56-.38-3.33-1.15-.77-.75-1.15-1.79-1.15-3.12,0-1.47.52-2.61,1.55-3.42,1.02-.77,2.38-1.15,4.1-1.15.36,0,.84.02,1.45.05.7.03,1.25.08,1.64.14,0-.69-.23-1.29-.7-1.8-.53-.58-1.2-.87-2.02-.87-.77,0-1.48.1-2.16.3-.72.22-1.35.55-1.9,1.01-.27.2-.54.27-.82.19-.23-.06-.42-.21-.56-.45-.16-.23-.22-.49-.19-.77.05-.3.2-.54.45-.73.69-.55,1.48-.95,2.39-1.22.86-.23,1.79-.35,2.79-.35,1.22,0,2.27.29,3.16.87,1.14.73,1.71,1.84,1.71,3.3v6.28c0,.34.17.54.52.59.22.05.64.02,1.27-.07h.09c.22-.03.4.06.54.28.11.2.16.45.16.75,0,.28-.05.52-.16.7-.14.22-.32.3-.54.26-.41-.03-.9-.05-1.48-.05-.33,0-.82,0-1.48.02l-.35.02c-.22,0-.38-.05-.49-.16-.06-.08-.12-.21-.19-.4l-.14-.3-.26.26v-.02ZM69.7,10.59c-.64-.08-1.14-.12-1.5-.14-.55-.05-.92-.07-1.12-.07-1.38,0-2.4.28-3.07.84-.53.45-.8,1.03-.8,1.73s.2,1.22.59,1.64c.41.44.95.66,1.64.66.89,0,1.74-.21,2.55-.63.7-.38,1.27-.84,1.71-1.41v-2.62Z"/>
      <path class="cls-1" d="M80.3,7.08c-.73.81-1.1,1.95-1.1,3.42s.37,2.59,1.1,3.45c.75.88,1.79,1.31,3.12,1.31.86,0,1.62-.16,2.3-.49.67-.31,1.16-.74,1.48-1.29.12-.27.34-.41.63-.45.28-.05.55,0,.82.16s.44.36.52.61c.11.28.07.57-.12.87-.7,1-1.55,1.7-2.53,2.09-.78.31-1.8.47-3.07.47-1.92,0-3.46-.55-4.62-1.64-1.25-1.2-1.88-2.91-1.88-5.11s.61-3.73,1.83-4.92c1.16-1.11,2.66-1.66,4.52-1.66.52,0,1.01.03,1.48.09.5.08.93.2,1.29.38l.26.14c.16.08.25.11.28.09.05,0,.07-.08.07-.23-.03-.19.09-.32.38-.4.25-.08.54-.09.87-.05.36.05.62.16.77.33.19.2.2.45.05.75-.19.47-.27,1.06-.23,1.78.03.62.13,1.23.3,1.83.08.23.02.45-.19.63-.19.17-.44.27-.75.3-.33.05-.6,0-.82-.12-.25-.16-.38-.39-.38-.7-.12-1-.42-1.71-.89-2.13-.52-.45-1.34-.68-2.48-.68-1.27,0-2.27.39-3,1.17Z"/>
      <path class="cls-1" d="M93.3,6.45c-.22-.14-.55-.19-1.01-.14-.27.03-.47-.05-.61-.26-.14-.19-.21-.43-.21-.73,0-.28.07-.52.21-.73.14-.22.34-.31.61-.28.62.02,1.02-.18,1.17-.59.17-.42.22-1.38.14-2.86-.06-.28.02-.5.26-.66.22-.14.5-.21.84-.21s.6.07.82.21c.25.16.36.38.33.66l-.07,1.36c-.03.94-.03,1.51,0,1.71.06.27.25.39.56.38.84.03,1.62.05,2.34.07.91,0,1.69-.02,2.34-.07.27-.03.48.05.66.26.16.19.23.43.23.73,0,.28-.08.52-.23.7-.17.22-.39.32-.66.3-.44-.02-.96-.02-1.57-.02h-1.66l-1.45.02c-.25,0-.41.05-.49.16-.06.12-.09.37-.09.73v5.91c0,.75.17,1.29.52,1.62.38.36,1.01.54,1.9.54s1.56-.18,2.06-.54c.45-.33.83-.86,1.12-1.59.08-.2.27-.33.56-.38.27-.03.54.02.82.14.3.12.51.3.63.54.14.25.13.53-.02.84-.62,1.27-1.43,2.11-2.41,2.53-.66.28-1.63.42-2.93.42s-2.44-.34-3.23-1.01c-.78-.67-1.17-1.59-1.17-2.74v-6.28c0-.36-.1-.61-.3-.75Z"/>
      <path class="cls-1" d="M112.62,4.05c.28.08.62.19,1.01.33.27.09.43.14.49.14.09-.02.13-.12.12-.3,0-.14.12-.23.38-.28.23-.05.52-.05.84,0,.31.06.56.15.75.26.2.14.27.3.19.47-.14.47-.2,1.05-.19,1.76.02.58.08,1.1.19,1.57.09.23.03.43-.19.59-.19.16-.45.25-.8.28-.33.03-.61,0-.84-.12-.27-.11-.38-.28-.35-.52-.03-.8-.27-1.38-.7-1.73-.48-.39-1.28-.59-2.39-.59-.86,0-1.51.15-1.95.45-.45.31-.68.77-.68,1.36,0,.56.28.99.84,1.29.62.36,1.62.54,2.98.54,1.45,0,2.56.28,3.33.84.88.64,1.31,1.64,1.31,3,0,1.2-.38,2.12-1.15,2.77-.88.72-2.23,1.08-4.08,1.08-.62,0-1.22-.07-1.78-.21-.33-.08-.71-.2-1.15-.38-.28-.11-.46-.16-.54-.16-.11,0-.16.09-.14.26,0,.17-.12.3-.38.4-.23.08-.5.1-.8.07-.31-.02-.55-.09-.73-.23-.22-.16-.29-.36-.21-.61.11-.44.16-1.01.14-1.71-.02-.67-.08-1.27-.19-1.78-.09-.25-.03-.45.19-.61.2-.12.47-.2.8-.23s.6,0,.82.09c.25.11.37.27.35.47-.03.94.24,1.62.82,2.04.56.42,1.43.63,2.6.63,1.11,0,1.92-.17,2.44-.52.48-.3.73-.75.73-1.36s-.23-1.04-.7-1.34c-.48-.33-1.25-.49-2.3-.49-1.47,0-2.66-.23-3.56-.7-1.27-.64-1.9-1.69-1.9-3.14,0-1.06.34-1.93,1.01-2.6.84-.81,2.12-1.22,3.82-1.22.53,0,1.05.05,1.55.16Z"/>
    </g>
  </g>
</svg>