<?xml version="1.0" encoding="UTF-8"?>
<svg id="_레이어_2" data-name="레이어 2" xmlns="http://www.w3.org/2000/svg" viewBox="0 0 65.44 17.65">
  <defs>
    <style>
      .cls-1 {
        fill: #231815;
        stroke-width: 0px;
      }
    </style>
  </defs>
  <g id="_레이어_1-2" data-name="레이어 1">
    <g>
      <path class="cls-1" d="M1.78,2.07c-.22-.09-.55-.11-1.01-.05-.25.02-.45-.09-.59-.3-.12-.19-.19-.42-.19-.7C0,.72.06.47.19.29.33.07.52-.03.77,0c.45.09.98.14,1.57.14C2.98.15,3.63.1,4.29,0v5.48c.45-.38.99-.66,1.62-.87s1.25-.3,1.88-.3c1.33,0,2.32.28,2.98.84.69.61,1.03,1.58,1.03,2.91v6.68c0,.3.09.48.28.54.12.05.38.05.75,0l.33-.02c.25-.05.45.04.59.26.14.19.21.43.21.73,0,.31-.07.56-.21.75-.14.22-.34.3-.59.26-.83-.06-1.6-.09-2.32-.09-.81,0-1.65.03-2.51.09-.23.03-.42-.06-.56-.28-.12-.19-.19-.42-.19-.7-.02-.28.04-.52.16-.73.14-.22.34-.31.59-.28l.23.02c.34.05.59.05.73,0,.23-.06.35-.24.35-.54v-6.38c0-.75-.18-1.29-.54-1.62-.31-.28-.75-.42-1.31-.42-.81,0-1.48.12-2.02.38-.5.23-.99.63-1.48,1.2v6.84c0,.3.05.48.16.54.09.05.3.05.61,0l.38-.05c.22-.05.4.04.54.26.12.2.19.45.19.75,0,.28-.06.52-.19.73-.14.22-.32.31-.54.28-.84-.05-1.59-.07-2.23-.07-.86-.02-1.67,0-2.44.07-.25.02-.45-.09-.59-.3-.12-.2-.19-.45-.19-.75s.06-.54.19-.73c.14-.22.34-.3.59-.23l.38.05c.38.05.62.05.73,0,.17-.06.26-.24.26-.54V2.75c0-.34-.12-.57-.35-.68Z"/>
      <path class="cls-1" d="M27.84,6.4c1.06,1.23,1.59,2.77,1.59,4.62s-.53,3.35-1.59,4.57c-1.19,1.38-2.82,2.06-4.9,2.06s-3.73-.69-4.92-2.06c-1.05-1.22-1.57-2.74-1.57-4.57s.52-3.38,1.57-4.62c1.19-1.39,2.83-2.09,4.92-2.09s3.71.7,4.9,2.09ZM19.71,7.76c-.67.86-1.01,1.95-1.01,3.26s.34,2.35,1.01,3.21c.77.97,1.84,1.45,3.23,1.45s2.43-.48,3.21-1.45c.7-.86,1.05-1.93,1.05-3.21s-.35-2.4-1.05-3.26c-.78-.95-1.85-1.43-3.21-1.43s-2.47.48-3.23,1.43Z"/>
      <path class="cls-1" d="M33.68,6.87c-.25-.09-.62-.12-1.1-.07-.22.02-.38-.09-.49-.3-.11-.2-.16-.45-.16-.75,0-.31.05-.56.16-.75.11-.2.27-.27.49-.21.5.03.99.05,1.48.05.28,0,.66-.02,1.12-.05h.7c-.02.19,0,.28.02.28.02,0,.21-.09.59-.28.28-.16.59-.27.91-.35.45-.08,1.07-.12,1.85-.12.55,0,1.05.11,1.5.33.38.19.68.43.91.73.38-.36.77-.61,1.17-.75.59-.2,1.43-.3,2.51-.3s1.86.3,2.48.89c.64.62.96,1.47.96,2.53v7.01c0,.25.1.41.3.49.2.09.55.1,1.03.02.25-.05.45.04.61.26.14.19.21.43.21.73s-.07.54-.21.73c-.16.22-.36.31-.61.28l-.09-.02c-.83-.03-1.45-.05-1.88-.05-.7,0-1.41.02-2.11.07-.23.02-.42-.09-.56-.3-.12-.19-.19-.43-.19-.73,0-.28.05-.52.16-.7.14-.22.33-.3.56-.26.2.03.35.02.45-.05.11-.06.16-.22.16-.47v-6.66c0-.56-.12-.98-.38-1.27-.28-.33-.71-.49-1.29-.49-.78,0-1.38.15-1.8.45-.38.28-.6.69-.68,1.22v6.75c0,.28.06.46.19.54.11.06.32.05.63-.02.25-.06.45,0,.59.21.14.17.21.41.21.7s-.07.55-.21.75c-.14.23-.34.34-.59.33-.48-.05-1.14-.07-1.97-.07-.64.02-1.22.04-1.73.07-.28.03-.51-.07-.68-.3-.16-.2-.23-.45-.21-.75,0-.3.08-.54.23-.73.17-.2.41-.27.7-.21.22.05.38.05.47,0,.14-.08.21-.25.21-.52v-6.73c0-.53-.1-.93-.3-1.2-.25-.33-.66-.49-1.22-.49-.75,0-1.33.15-1.73.45-.38.25-.66.66-.84,1.24v6.73c-.02.22.02.37.12.45.09.06.26.08.49.05.23-.05.42.03.56.23.12.19.19.43.19.73s-.06.54-.19.73c-.14.23-.33.34-.56.33-.53-.05-1.13-.07-1.8-.07-.55,0-1.37.02-2.46.07-.22.02-.38-.09-.49-.3-.11-.2-.16-.45-.16-.75s.05-.54.16-.73c.11-.22.27-.3.49-.23h.02c.5.06.84.07,1.01.02.31-.05.47-.22.47-.52v-7.34c-.02-.25-.15-.43-.4-.54Z"/>
      <path class="cls-1" d="M63.91,6.4c1,1.23,1.5,2.77,1.5,4.62l-.05.77-.7-.02c-2.3-.03-4.01-.05-5.13-.07-1.97,0-3.24.03-3.82.09.14,1.09.5,1.98,1.08,2.67.67.81,1.55,1.22,2.62,1.22s1.95-.11,2.53-.33c.52-.19,1.07-.56,1.66-1.12.22-.23.48-.34.77-.33.27.02.51.12.73.3.2.19.31.41.33.68.02.28-.1.55-.35.82-.77.75-1.59,1.27-2.48,1.55-.81.27-1.88.4-3.19.4-1.92,0-3.43-.69-4.52-2.06-.97-1.22-1.45-2.74-1.45-4.57s.48-3.38,1.45-4.62c1.09-1.39,2.6-2.09,4.52-2.09s3.39.7,4.5,2.09ZM56.88,7.39c-.55.59-.89,1.37-1.03,2.32,1.34.05,2.54.07,3.59.07,1.19,0,2.38-.02,3.59-.07-.19-.95-.55-1.73-1.1-2.32-.66-.7-1.49-1.05-2.51-1.05s-1.88.35-2.53,1.05Z"/>
    </g>
  </g>
</svg>