<?xml version="1.0" encoding="UTF-8"?>
<svg id="_레이어_2" data-name="레이어 2" xmlns="http://www.w3.org/2000/svg" viewBox="0 0 178.04 18.62">
  <defs>
    <style>
      .cls-1 {
        fill: #231815;
        stroke-width: 0px;
      }
    </style>
  </defs>
  <g id="_레이어_1-2" data-name="레이어 1">
    <g>
      <path class="cls-1" d="M15.62,3.05c.09-.02.35-.05,1.06.02.31.08.58-.05.76-.34.15-.23.23-.53.23-.89,0-.34-.08-.64-.22-.87-.24-.45-.58-.45-.73-.41-.79.05-1.44.07-1.93.07s-.97-.02-1.46-.07c-.48-.07-.85,0-1.12.22-.15.14-.31.38-.47.77l-2.85,8.29s-.04.09-.05.12c-.01-.03-.03-.07-.04-.12L5.88,1.53l-.07-.21c-.13-.4-.27-.63-.43-.71-.21-.14-.53-.15-1.01-.04-.49.05-.99.07-1.5.07s-1.17-.03-1.95-.09c-.18-.03-.52-.01-.72.4-.13.23-.2.5-.2.83s.07.6.19.81c.19.38.48.47.7.47h0l.43-.02c.61,0,.76.03.8.04.02,0,.05.02.05.16v12.3c0,.08-.02.17-.21.23-.22.05-.57.05-1.05,0-.18-.03-.52-.01-.72.4-.13.23-.2.5-.2.83s.07.63.19.84c.14.26.35.4.6.4.03,0,.07,0,.11,0,1.93-.12,3.77-.12,4.87,0,.34.04.61-.1.78-.39.15-.23.23-.51.23-.84s-.08-.61-.23-.84c-.2-.31-.48-.44-.79-.37-.47.07-.7.03-.81,0-.09-.03-.14-.09-.14-.24V6.49l2.67,7.7c.26.91.86,1.1,1.32,1.1s1.06-.19,1.36-1.08l2.65-7.71v9.03c0,.17-.05.24-.21.27-.08.02-.28.04-.75-.03-.32-.07-.6.05-.77.33-.16.21-.24.5-.24.85,0,.33.08.61.22.83.22.38.52.45.75.43,1.39-.09,3.07-.09,4.89,0,.21.02.51-.05.72-.42.15-.23.23-.52.23-.87s-.08-.61-.22-.83c-.18-.3-.47-.42-.75-.33-.8.08-1.01.04-1.07.03-.05-.01-.13-.03-.13-.27V3.2c0-.13.04-.14.14-.16Z"/>
      <path class="cls-1" d="M33.14,15.77h-.1c-.6.1-.8.06-.87.03-.06-.02-.22-.06-.22-.49V5.19h-.26c-.54.05-1.15.06-1.81.06s-1.23-.02-1.72-.04c-.32-.05-.59.1-.76.39-.15.23-.23.51-.23.84s.08.61.22.83c.17.28.43.42.77.4.58-.09.85-.07.96-.03.13.04.18.11.18.25v6.77c-.31.47-.74.84-1.27,1.09-.52.26-1.13.4-1.81.4-.53,0-.96-.11-1.3-.34-.4-.25-.59-.64-.59-1.2V5.19h-.26c-.47.02-1.05.03-1.75.03-.79.01-1.43,0-1.88-.02-.31-.04-.57.09-.72.38-.13.23-.2.51-.2.85s.07.6.19.82c.16.29.42.44.73.41.6-.09.89-.05,1.03-.01.11.04.21.11.21.35v6.56c0,1.21.4,2.19,1.18,2.93.81.74,1.95,1.12,3.38,1.12.66,0,1.25-.08,1.73-.25.45-.13.88-.35,1.26-.62.11-.06.16-.05.18-.03,0,0,.07.05.14.35l.05.21.22-.02c1.09-.09,2.45-.09,3.3,0,.19.04.54.04.8-.39.15-.23.23-.53.23-.89,0-.34-.08-.64-.23-.89-.2-.28-.47-.39-.78-.32Z"/>
      <path class="cls-1" d="M48.93,15.73c-.61.12-.84.11-.9.1-.07-.02-.09-.03-.09-.13v-7.31c0-1.2-.41-2.13-1.22-2.75-.71-.56-1.67-.85-2.83-.85-.85,0-1.62.12-2.26.37-.41.15-.83.37-1.23.67-.04.03-.07.05-.09.06,0-.07,0-.17.02-.33l.03-.3-.3.02c-1.2.09-2.45.08-3.63,0-.32-.1-.6.02-.76.32-.13.23-.2.52-.2.88,0,.34.07.63.19.86.21.42.53.45.71.44.6-.04.88.01,1,.06h0c.14.05.27.13.27.42v7.44s-.04.05-.22.07c-.11,0-.38,0-1.02-.04-.31-.08-.58.06-.74.35-.13.23-.2.51-.2.85s.07.63.19.86c.21.43.55.44.7.42,1.1-.05,2-.07,2.66-.07s1.34.02,1.96.06c.32.07.61-.06.78-.36.15-.23.23-.53.23-.89,0-.34-.08-.64-.22-.87-.18-.32-.47-.45-.81-.35-.24.08-.44.11-.56.09-.07-.02-.09-.03-.09-.13v-7.03c.35-.41.77-.72,1.24-.94.59-.28,1.25-.42,1.98-.42.62,0,1.07.12,1.34.36.28.25.43.68.43,1.29v6.75c0,.06-.01.08-.03.08,0,0-.09,0-.46-.05-.54-.12-.88.09-1.07.29-.21.25-.32.56-.32.93s.12.69.35.94c.21.22.47.34.76.34.07,0,.15,0,.23-.02,1.07-.05,1.85-.07,2.33-.07s1.13.02,1.86.07c.37.06.69-.06.91-.34.19-.23.29-.54.29-.91s-.1-.68-.29-.93c-.24-.3-.56-.4-.92-.3Z"/>
      <path class="cls-1" d="M57.11,3.69c.56,0,1.01-.2,1.33-.6.31-.34.46-.75.46-1.22,0-.51-.15-.95-.46-1.29-.33-.38-.78-.58-1.34-.58s-1.03.2-1.34.58c-.29.34-.43.77-.43,1.29,0,.48.15.89.43,1.21.31.41.77.61,1.35.61Z"/>
      <path class="cls-1" d="M61.67,15.71c-.93.12-1.63.17-2.08.14-.5-.05-.76-.18-.76-.38V5.18l-.28.03c-.75.08-1.62.11-2.6.09-.94,0-1.69-.03-2.2-.09-.39-.08-.72.03-.95.33-.19.25-.29.55-.29.9s.1.66.29.9c.23.29.55.41.92.35l.32-.02c.74-.01,1.26,0,1.56.02h0c.46.04.56.12.57.11v7.66c0,.18-.35.3-.93.34-.44.01-1.23-.02-2.36-.12h-.15c-.37-.05-.69.06-.93.37-.17.25-.26.54-.26.89s.09.65.26.88c.2.25.47.38.76.38.04,0,.08,0,.12,0,1.43-.05,2.88-.07,4.3-.07s3.02.02,4.66.07c.41.04.75-.08,1-.36.23-.25.35-.56.35-.92,0-.38-.12-.69-.35-.93-.26-.26-.61-.36-1.01-.28Z"/>
      <path class="cls-1" d="M82.92,15.73c-.57.09-.8.04-.9,0-.07-.03-.14-.07-.14-.26v-7.01c0-1.13-.35-2.04-1.04-2.71-.67-.64-1.56-.96-2.66-.96s-1.97.11-2.59.32c-.37.13-.73.34-1.07.63-.23-.24-.5-.44-.83-.6-.49-.23-1.03-.35-1.61-.35-.79,0-1.43.04-1.91.12-.35.08-.68.21-.97.37-.09.04-.17.08-.24.12v-.14s-.98,0-.98,0c-.46.03-.83.05-1.11.05-.48,0-.97-.02-1.41-.04-.33-.1-.62.03-.78.33-.13.23-.2.52-.2.88,0,.34.07.63.19.86.15.31.41.46.74.44.44-.04.77-.02.98.05.16.07.23.17.24.31v7.34c0,.15-.04.24-.28.27-.08.02-.29.04-.91-.03-.33-.09-.61.04-.77.35-.13.23-.2.51-.2.85s.07.63.19.86c.15.31.41.46.73.44,1.08-.05,1.91-.07,2.45-.07.66,0,1.26.02,1.79.07.23.02.55-.05.79-.44.15-.23.23-.52.23-.87s-.08-.64-.23-.87c-.2-.28-.48-.4-.8-.34-.08.01-.14.01-.19.01-.08,0-.1,0-.12,0-.01-.02-.04-.08-.02-.25v-6.69c.17-.5.42-.86.74-1.08.36-.26.89-.4,1.59-.4.48,0,.82.13,1.02.39.17.22.25.57.25,1.04v6.73c0,.16-.03.27-.07.29,0,0-.07.03-.31-.02-.49-.1-.78.1-.95.3-.19.23-.29.53-.29.87-.02.36.07.66.26.91.2.27.47.41.78.41.04,0,.08,0,.12,0,.51-.03,1.09-.05,1.72-.07.82,0,1.47.02,1.95.07.34.02.63-.13.81-.44.17-.25.26-.54.26-.89s-.09-.64-.26-.85c-.2-.29-.5-.4-.85-.31-.33.08-.44.05-.44.05,0,0-.07-.05-.07-.33v-6.71c.07-.47.26-.81.57-1.05.38-.26.94-.4,1.66-.4.51,0,.87.13,1.1.41.21.23.31.6.31,1.1v6.66c0,.2-.04.25-.05.26-.02.02-.1.03-.26,0-.33-.07-.63.06-.83.38-.13.23-.2.5-.2.83,0,.35.08.64.23.86.19.3.46.45.79.42.69-.05,1.4-.07,2.09-.07.42,0,1.04.02,1.81.04l.12.03c.34.04.63-.09.84-.38.17-.23.26-.53.26-.88s-.09-.65-.26-.87c-.21-.3-.51-.42-.85-.36Z"/>
      <path class="cls-1" d="M92.76,4.78c-2.16,0-3.88.73-5.11,2.17-1.08,1.28-1.63,2.88-1.63,4.78s.55,3.47,1.63,4.73c1.23,1.43,2.95,2.15,5.11,2.15s3.86-.72,5.09-2.15c1.1-1.26,1.66-2.85,1.66-4.73s-.56-3.5-1.65-4.78c-1.23-1.44-2.94-2.17-5.09-2.17ZM92.76,16.15c-1.32,0-2.32-.44-3.04-1.36-.63-.81-.95-1.84-.95-3.06s.32-2.29.95-3.1c.72-.9,1.72-1.33,3.04-1.33s2.28.44,3.02,1.34c.66.81,1,1.85,1,3.1s-.34,2.24-1,3.05c-.74.92-1.72,1.36-3.02,1.36Z"/>
      <path class="cls-1" d="M114.84,15.61c-.6.04-.86,0-.96-.05-.04-.02-.11-.05-.11-.24V.4l-.29.05c-1.27.21-3.1.21-4.83.02-.37-.04-.68.09-.91.39-.17.25-.26.55-.26.92s.09.67.26.9c.23.29.55.41.89.35.97-.06,1.63-.06,1.95,0,.52.1.52.33.52.43v2.32c-.36-.26-.79-.48-1.28-.66-.63-.23-1.29-.34-1.94-.34-1.87,0-3.37.72-4.44,2.14-.97,1.27-1.46,2.89-1.46,4.82s.49,3.49,1.46,4.75c1.08,1.42,2.57,2.14,4.44,2.14.78,0,1.5-.13,2.16-.39.43-.18.84-.41,1.2-.68.04.12.09.23.17.32.18.18.45.25.81.24.93-.09,1.7-.09,2.59,0,.33.04.63-.09.86-.38.17-.23.26-.53.26-.88s-.09-.65-.26-.88c-.23-.29-.53-.41-.84-.35ZM111.23,11.73c0,1.24-.28,2.28-.85,3.09-.61.89-1.4,1.32-2.42,1.32s-1.83-.43-2.42-1.32c-.53-.81-.8-1.86-.8-3.1s.27-2.31.8-3.12c.58-.89,1.37-1.32,2.42-1.32s1.81.43,2.42,1.32c.56.81.85,1.86.85,3.12Z"/>
      <path class="cls-1" d="M124.73,4.78c-2.16,0-3.88.73-5.11,2.17-1.08,1.28-1.63,2.88-1.63,4.78s.55,3.47,1.63,4.73c1.23,1.43,2.95,2.15,5.11,2.15s3.86-.72,5.09-2.15c1.1-1.26,1.66-2.85,1.66-4.73s-.56-3.5-1.65-4.78c-1.23-1.44-2.94-2.17-5.09-2.17ZM124.73,16.15c-1.32,0-2.32-.44-3.04-1.36-.63-.81-.95-1.84-.95-3.06s.32-2.29.95-3.1c.72-.9,1.72-1.33,3.04-1.33s2.28.44,3.02,1.34c.66.81,1,1.85,1,3.1s-.34,2.24-1,3.05c-.74.92-1.72,1.36-3.02,1.36Z"/>
      <path class="cls-1" d="M142.63,4.85c-.72,0-1.37.12-1.95.35-.58.24-1.25.68-1.94,1.29l-.24.17c-.05.05-.09.08-.12.11-.03-.16-.06-.5-.06-1.24v-.27l-.27.02c-1.29.09-2.53.09-3.41,0-.37-.07-.67.07-.88.38-.17.25-.26.55-.26.92s.09.67.26.9c.22.3.54.41.92.3h.04c.44-.03.62.01.68.04h.01c.08.03.25.09.25.47v7.31c0,.15-.03.21-.24.22-.07.01-.27,0-.76-.11-.36-.08-.68.04-.89.35-.17.23-.26.53-.26.9s.09.67.26.9c.18.25.42.38.69.38.05,0,.11,0,.16-.02.68-.05,1.72-.07,3.1-.07s2.59.02,3.53.07c.45.06.83-.05,1.11-.32.28-.24.42-.55.42-.94s-.14-.7-.4-.93c-.29-.29-.68-.41-1.12-.33-1.09.12-1.85.18-2.23.16-.21,0-.7-.06-.7-.27v-5.33c.97-.98,1.77-1.71,2.38-2.17.67-.5,1.21-.75,1.59-.75.32,0,.53.08.64.25.12.16.26.53.26,1.38,0,.39.16.72.48.95.27.19.58.27.96.26.37-.02.69-.15.93-.4.29-.27.43-.61.43-1.03-.02-1.17-.35-2.13-1-2.86-.62-.69-1.41-1.04-2.34-1.04Z"/>
      <path class="cls-1" d="M154.7,4.78c-2.16,0-3.88.73-5.11,2.17-1.08,1.28-1.63,2.88-1.63,4.78s.55,3.47,1.63,4.73c1.23,1.43,2.95,2.15,5.11,2.15s3.86-.72,5.09-2.15c1.1-1.26,1.66-2.85,1.66-4.73s-.56-3.5-1.65-4.78c-1.23-1.44-2.94-2.17-5.09-2.17ZM154.7,16.15c-1.32,0-2.32-.44-3.04-1.36-.63-.81-.95-1.84-.95-3.06s.32-2.29.95-3.1c.72-.9,1.72-1.33,3.04-1.33s2.28.44,3.02,1.34c.66.81,1,1.85,1,3.1s-.34,2.24-1,3.05c-.74.92-1.72,1.36-3.02,1.36Z"/>
      <path class="cls-1" d="M177.81,16.09c-.2-.28-.47-.39-.78-.32h-.1c-.6.1-.8.06-.87.03-.06-.02-.22-.06-.22-.49V5.19h-.26c-.54.05-1.15.06-1.81.06s-1.23-.02-1.72-.04c-.32-.05-.59.1-.76.39-.15.23-.23.51-.23.84s.08.61.22.83c.17.28.43.42.77.4.57-.09.85-.07.96-.03.13.04.18.11.18.25v6.77c-.31.47-.74.84-1.27,1.09-.52.26-1.13.4-1.81.4-.53,0-.96-.11-1.3-.34-.4-.25-.59-.64-.59-1.2V5.19h-.26c-.47.02-1.05.03-1.75.03-.79.01-1.43,0-1.88-.02-.31-.04-.57.09-.72.38-.13.23-.2.51-.2.85s.07.6.19.82c.16.29.41.44.73.41.6-.09.89-.05,1.03-.01.11.04.21.11.21.35v6.56c0,1.21.4,2.19,1.18,2.93.81.74,1.95,1.12,3.38,1.12.66,0,1.25-.08,1.73-.25.45-.13.88-.35,1.26-.62.11-.06.16-.05.18-.03,0,0,.07.05.14.35l.05.21.22-.02c1.09-.09,2.45-.09,3.3,0,.19.04.54.04.8-.39.15-.23.23-.53.23-.89,0-.34-.08-.64-.23-.89Z"/>
    </g>
  </g>
</svg>