<?xml version="1.0" encoding="UTF-8"?>
<svg id="_레이어_2" data-name="레이어 2" xmlns="http://www.w3.org/2000/svg" viewBox="0 0 149.86 171.87">
  <defs>
    <style>
      .cls-1 {
        fill: #fff;
      }

      .cls-1, .cls-2 {
        stroke-width: 0px;
      }

      .cls-2 {
        fill: #9fa0a0;
      }
    </style>
  </defs>
  <g id="_레이어_1-2" data-name="레이어 1">
    <path class="cls-1" d="M144.08,160.45c0-3.19,2.58-5.77,5.77-5.77v-9.74c-3.19,0-5.77-2.58-5.77-5.77s2.58-5.77,5.77-5.77v-9.74c-3.19,0-5.77-2.58-5.77-5.77s2.58-5.77,5.77-5.77v-9.74c-3.19,0-5.77-2.58-5.77-5.77s2.58-5.77,5.77-5.77v-9.74c-3.19,0-5.77-2.58-5.77-5.77s2.58-5.77,5.77-5.77v-9.74c-3.19,0-5.77-2.58-5.77-5.77s2.58-5.77,5.77-5.77v-9.74c-3.19,0-5.77-2.58-5.77-5.77s2.58-5.77,5.77-5.77v-9.74c-3.19,0-5.77-2.58-5.77-5.77s2.58-5.77,5.77-5.77V0h-5.45c0,3.19-2.58,5.77-5.77,5.77s-5.77-2.58-5.77-5.77h-9.74c0,3.19-2.58,5.77-5.77,5.77s-5.77-2.58-5.77-5.77h-9.74c0,3.19-2.58,5.77-5.77,5.77s-5.77-2.58-5.77-5.77h-9.74c0,3.19-2.58,5.77-5.77,5.77s-5.77-2.58-5.77-5.77h-9.74c0,3.19-2.58,5.77-5.77,5.77s-5.77-2.58-5.77-5.77h-9.74c0,3.19-2.58,5.77-5.77,5.77s-5.77-2.58-5.77-5.77h-9.74c0,3.19-2.58,5.77-5.77,5.77S5.12,3.19,5.12,0H0v5.65c3.19,0,5.77,2.58,5.77,5.77s-2.58,5.77-5.77,5.77v9.74c3.19,0,5.77,2.58,5.77,5.77s-2.58,5.77-5.77,5.77v9.74c3.19,0,5.77,2.58,5.77,5.77s-2.58,5.77-5.77,5.77v9.74c3.19,0,5.77,2.58,5.77,5.77s-2.58,5.77-5.77,5.77v9.74c3.19,0,5.77,2.58,5.77,5.77s-2.58,5.77-5.77,5.77v9.74c3.19,0,5.77,2.58,5.77,5.77s-2.58,5.77-5.77,5.77v9.74c3.19,0,5.77,2.58,5.77,5.77s-2.58,5.77-5.77,5.77v9.74c3.19,0,5.77,2.58,5.77,5.77s-2.58,5.77-5.77,5.77v5.65h5.12c0-3.19,2.58-5.77,5.77-5.77s5.77,2.58,5.77,5.77h9.74c0-3.19,2.58-5.77,5.77-5.77s5.77,2.58,5.77,5.77h9.74c0-3.19,2.58-5.77,5.77-5.77s5.77,2.58,5.77,5.77h9.74c0-3.19,2.58-5.77,5.77-5.77s5.77,2.58,5.77,5.77h9.74c0-3.19,2.58-5.77,5.77-5.77s5.77,2.58,5.77,5.77h9.74c0-3.19,2.58-5.77,5.77-5.77s5.77,2.58,5.77,5.77h9.74c0-3.19,2.58-5.77,5.77-5.77s5.77,2.58,5.77,5.77h5.45v-5.65c-3.19,0-5.77-2.58-5.77-5.77Z"/>
    <rect class="cls-2" x="14.76" y="15.1" width="120.34" height="141.68"/>
  </g>
</svg>