<?xml version="1.0" encoding="UTF-8"?>
<svg id="_레이어_2" data-name="레이어 2" xmlns="http://www.w3.org/2000/svg" viewBox="0 0 76.92 17.66">
  <defs>
    <style>
      .cls-1 {
        fill: #231815;
        stroke-width: 0px;
      }
    </style>
  </defs>
  <g id="_레이어_1-2" data-name="레이어 1">
    <g>
      <path class="cls-1" d="M1.76,6.79c-.19-.06-.59-.09-1.2-.09-.17.02-.31-.09-.42-.3-.09-.19-.14-.43-.14-.73s.05-.53.14-.7c.11-.22.25-.3.42-.23.67.09,1.55.13,2.62.12.88-.02,1.64-.05,2.3-.12.22-.05.4.03.54.23.11.19.16.43.16.73,0,.28-.05.52-.16.73-.14.2-.32.3-.54.28l-.16-.02c-.36,0-.6.03-.73.09-.22.08-.29.25-.21.52l1.48,5.13c.09.28.16.42.21.42s.12-.14.23-.42l1.83-5.3c.16-.5.44-.75.84-.75s.65.25.77.75l1.83,5.3c.08.3.16.45.23.45s.15-.15.21-.45l1.52-5.13c.05-.23,0-.39-.14-.47s-.43-.12-.87-.12c-.27.06-.47,0-.61-.21-.14-.17-.21-.41-.21-.7s.07-.55.21-.75c.14-.23.34-.34.61-.3.52.06,1.31.09,2.39.07.86-.02,1.67-.04,2.44-.07.17-.05.31.04.42.26.09.19.14.43.14.73s-.05.54-.14.73c-.11.22-.25.3-.42.26-.61-.05-1.01-.03-1.2.05-.19.06-.33.24-.42.54l-2.7,9.38c-.17.66-.55.98-1.15.98-.58.02-.95-.3-1.12-.96l-1.66-4.8c-.06-.27-.12-.4-.19-.4-.05,0-.1.13-.16.4l-1.62,4.66c-.09.36-.26.64-.49.84-.2.19-.44.28-.7.28-.27-.02-.49-.12-.68-.3-.22-.2-.35-.47-.4-.8L2.16,7.28c-.08-.25-.21-.41-.4-.49Z"/>
      <path class="cls-1" d="M31.34,6.39c1.06,1.23,1.59,2.77,1.59,4.62s-.53,3.35-1.59,4.57c-1.19,1.38-2.82,2.06-4.9,2.06s-3.73-.69-4.92-2.06c-1.05-1.22-1.57-2.74-1.57-4.57s.52-3.38,1.57-4.62c1.19-1.39,2.83-2.09,4.92-2.09s3.71.7,4.9,2.09ZM23.2,7.75c-.67.86-1.01,1.95-1.01,3.26s.34,2.35,1.01,3.21c.77.97,1.84,1.45,3.23,1.45s2.43-.48,3.21-1.45c.7-.86,1.05-1.93,1.05-3.21s-.35-2.4-1.05-3.26c-.78-.95-1.85-1.43-3.21-1.43s-2.47.48-3.23,1.43Z"/>
      <path class="cls-1" d="M37.2,6.86c-.16-.06-.43-.09-.82-.07l-.07.02c-.27.08-.48,0-.63-.21-.14-.19-.21-.44-.21-.75s.07-.57.21-.77c.16-.23.37-.33.63-.28.47.05,1,.07,1.59.07s1.22-.02,1.88-.07c0,.86.05,1.36.14,1.5.06.11.22.05.47-.19l.21-.14c.7-.61,1.34-1.03,1.9-1.27.55-.22,1.16-.33,1.85-.33.86,0,1.58.32,2.16.96.61.69.92,1.59.94,2.7,0,.34-.12.62-.35.84-.2.2-.46.31-.77.33s-.58-.05-.8-.21c-.25-.19-.38-.44-.38-.75,0-.73-.1-1.24-.3-1.52-.16-.23-.44-.35-.84-.35-.44,0-1.02.27-1.73.8-.64.48-1.47,1.24-2.48,2.27v5.44c0,.31.31.48.94.52.41.02,1.16-.04,2.27-.16.38-.06.68.02.91.26.22.19.33.44.33.75s-.11.56-.33.75c-.23.22-.54.3-.91.26-.97-.05-2.16-.07-3.56-.07s-2.43.02-3.12.07c-.27.05-.48-.04-.63-.26-.14-.19-.21-.44-.21-.75s.07-.56.21-.75c.16-.23.37-.32.63-.26.41.09.69.13.84.12.31-.02.47-.17.47-.47v-7.31c0-.38-.14-.61-.42-.7Z"/>
      <path class="cls-1" d="M51.05,2.05c-.25-.06-.58-.07-.98-.02-.2.03-.36-.07-.47-.3-.11-.19-.16-.43-.16-.73s.05-.55.16-.75.27-.28.47-.23c.73.06,1.36.09,1.88.09.67.02,1.28-.02,1.83-.09v9.3l3.49-2.67c.14-.16.16-.27.07-.33-.06-.06-.23-.09-.49-.09-.17.02-.3-.09-.4-.33-.09-.2-.14-.45-.14-.73,0-.31.05-.55.16-.73.14-.22.32-.3.54-.23.7.09,1.57.14,2.6.14.92-.02,1.86-.06,2.81-.14.25-.03.46.05.63.26.14.2.21.45.21.73,0,.3-.07.54-.21.73-.17.22-.38.32-.63.3h-.49c-.28-.02-.49,0-.63.02-.22.05-.41.15-.56.3l-3.63,2.79,3.77,5.74c.11.16.26.24.45.26.12.02.37,0,.73-.07l.63-.07c.23-.05.42.03.56.23.12.19.19.43.19.73,0,.28-.06.52-.19.73-.14.22-.33.33-.56.33-.67-.03-1.43-.05-2.27-.07-1.05,0-1.89.02-2.53.07-.28.02-.5-.09-.66-.3-.14-.19-.2-.42-.19-.7.02-.3.09-.54.21-.73.16-.22.35-.31.59-.28.19.05.28,0,.28-.14s-.09-.34-.28-.61l-2.41-3.7-1.64,1.38v5.09c-.69-.05-1.35-.07-1.99-.07s-1.2.02-1.71.07c-.2.03-.36-.06-.47-.28-.11-.19-.16-.43-.16-.73s.05-.54.16-.73c.11-.22.27-.31.47-.28.34.08.67.11.98.09.38-.05.56-.16.56-.33V2.57c0-.27-.19-.44-.56-.52Z"/>
      <path class="cls-1" d="M72.59,4.47c.28.08.62.19,1.01.33.27.09.43.14.49.14.09-.02.13-.12.12-.3,0-.14.12-.23.38-.28.23-.05.52-.05.84,0,.31.06.56.15.75.26.2.14.27.3.19.47-.14.47-.2,1.05-.19,1.76.02.58.08,1.1.19,1.57.09.23.03.43-.19.59-.19.16-.45.25-.8.28-.33.03-.61,0-.84-.12-.27-.11-.38-.28-.35-.52-.03-.8-.27-1.38-.7-1.73-.48-.39-1.28-.59-2.39-.59-.86,0-1.51.15-1.95.45-.45.31-.68.77-.68,1.36,0,.56.28.99.84,1.29.62.36,1.62.54,2.98.54,1.45,0,2.56.28,3.33.84.88.64,1.31,1.64,1.31,3,0,1.2-.38,2.12-1.15,2.77-.88.72-2.23,1.08-4.08,1.08-.62,0-1.22-.07-1.78-.21-.33-.08-.71-.2-1.15-.38-.28-.11-.46-.16-.54-.16-.11,0-.16.09-.14.26,0,.17-.12.3-.38.4-.23.08-.5.1-.8.07-.31-.02-.55-.09-.73-.23-.22-.16-.29-.36-.21-.61.11-.44.16-1.01.14-1.71-.02-.67-.08-1.27-.19-1.78-.09-.25-.03-.45.19-.61.2-.12.47-.2.8-.23s.6,0,.82.09c.25.11.37.27.35.47-.03.94.24,1.62.82,2.04.56.42,1.43.63,2.6.63,1.11,0,1.92-.17,2.44-.52.48-.3.73-.75.73-1.36s-.23-1.04-.7-1.34c-.48-.33-1.25-.49-2.3-.49-1.47,0-2.66-.23-3.56-.7-1.27-.64-1.9-1.69-1.9-3.14,0-1.06.34-1.93,1.01-2.6.84-.81,2.12-1.22,3.82-1.22.53,0,1.05.05,1.55.16Z"/>
    </g>
  </g>
</svg>